<?xml version="1.0" encoding="UTF-8" standalone="no"?>
<!DOCTYPE svg PUBLIC "-//W3C//DTD SVG 1.1//EN" "http://www.w3.org/Graphics/SVG/1.1/DTD/svg11.dtd">
<svg version="1.1" xmlns="http://www.w3.org/2000/svg" xmlns:xlink="http://www.w3.org/1999/xlink" preserveAspectRatio="xMidYMid meet" viewBox="0 0 640 640" width="200" height="200"><defs><path d="M620 320C620 485.57 485.57 620 320 620C154.43 620 20 485.57 20 320C20 154.43 154.43 20 320 20C485.57 20 620 154.43 620 320Z" id="f81vQE9wn"></path><path d="M584.42 319.03C584.42 464.97 465.94 583.46 320 583.46C174.06 583.46 55.58 464.97 55.58 319.03C55.58 173.09 174.06 54.61 320 54.61C465.94 54.61 584.42 173.09 584.42 319.03Z" id="b3HXLGyUa8"></path><path d="M242.69 274.02L450.08 260.29L569.86 404.82L553.14 442.4L536.42 469.86L513.88 496.59L492.07 518.27L469.53 536.34L448.45 550.07L423 560.91L402.64 568.24L380.98 575.36L362.66 578.98L341.57 582.46L211.97 389.64L242.69 274.02Z" id="b7klP9n5Ug"></path><path d="M365.99 333.4C357.42 332.48 349.7 338.7 348.78 347.28C346.2 371.37 330.15 390.62 306.87 397.53C288.46 402.98 262.1 400.59 243.31 377.49C227.31 357.82 224.4 332.06 235.7 310.27C246.75 288.99 268.46 276.8 292.34 278.46C300.94 279.05 308.42 272.55 309.02 263.94C309.6 255.68 302.78 247.84 294.51 247.27C257.99 244.73 224.83 263.36 207.95 295.89C190.81 328.9 195.06 367.74 219.05 397.23C242.89 426.53 279.93 438.13 315.75 427.52C351.37 416.95 375.93 387.49 379.88 350.6C380.76 342.29 374.3 334.28 365.99 333.4Z" id="aDchAgkka"></path><path d="M431.02 247.04C440.75 247.04 448.64 254.93 448.64 264.66C448.64 268.18 448.64 261.13 448.64 264.66C448.64 274.39 440.75 282.28 431.02 282.28C406.39 282.28 350.11 282.28 325.48 282.28C315.75 282.28 307.86 274.39 307.86 264.66C307.86 261.13 307.86 268.18 307.86 264.66C307.86 254.93 315.75 247.04 325.48 247.04C350.11 247.04 406.39 247.04 431.02 247.04Z" id="e5ALrtdwNb"></path><path d="M363.27 148.52C363.27 179.11 338.44 203.94 307.86 203.94C277.27 203.94 252.44 179.11 252.44 148.52C252.44 117.94 277.27 93.11 307.86 93.11C338.44 93.11 363.27 117.94 363.27 148.52Z" id="a61xMlNee"></path><path d="M510.69 399.3C517.45 407.41 516.36 419.46 508.25 426.22C505.31 428.66 511.18 423.77 508.25 426.22C500.14 432.97 488.09 431.88 481.34 423.77C466.66 406.15 434.85 367.99 420.17 350.37C413.42 342.26 414.51 330.22 422.62 323.46C425.55 321.01 419.68 325.91 422.62 323.46C430.73 316.7 442.77 317.8 449.53 325.91C464.21 343.52 496.02 381.69 510.69 399.3Z" id="herRitmEu"></path><path d="" id="adLDTEmhM"></path><path d="M336.35 139.43C336.35 145.26 331.61 150 325.77 150C319.93 150 315.19 145.26 315.19 139.43C315.19 133.59 319.93 128.85 325.77 128.85C331.61 128.85 336.35 133.59 336.35 139.43Z" id="g21YtyhN3"></path><path d="" id="c1Qt8EaVpo"></path><path d="M312.62 186.22C322.23 186.37 329.91 194.28 329.76 203.9C328.85 263.87 326.37 426.38 325.46 486.35C325.31 495.97 317.4 503.64 307.78 503.5C304.29 503.44 311.25 503.55 307.76 503.5C298.14 503.35 290.47 495.44 290.61 485.82C291.53 425.85 294.01 263.34 294.92 203.37C295.07 193.75 302.98 186.08 312.6 186.22C316.08 186.28 309.13 186.17 312.62 186.22Z" id="a5k9PjtIRU"></path><path d="M379.83 164.13C377.53 200.79 343.88 228.54 304.73 226.08C265.59 223.62 235.69 191.86 237.99 155.21C240.3 118.56 273.95 90.8 313.09 93.26C352.23 95.72 382.14 127.48 379.83 164.13Z" id="b2WPyfVMVW"></path><path d="M297.85 135.37C301.04 141.07 298.42 148.62 292 152.2C285.58 155.79 277.78 154.07 274.59 148.36C271.4 142.66 274.02 135.11 280.44 131.53C286.86 127.94 294.66 129.66 297.85 135.37Z" id="g5i4E0xqO"></path><path d="M307.86 328.82C307.86 323.26 312.36 318.76 317.91 318.76C344.06 318.76 412.44 318.76 438.58 318.76C444.14 318.76 448.64 323.26 448.64 328.82C448.64 333.85 448.64 338.91 448.64 343.95C448.64 349.5 444.14 354 438.58 354C412.44 354 344.06 354 317.91 354C312.36 354 307.86 349.5 307.86 343.95C307.86 338.91 307.86 333.85 307.86 328.82Z" id="fN2oc8mcT"></path><path d="" id="j5VkzviNdG"></path></defs><g><g><g><use xlink:href="#f81vQE9wn" opacity="1" fill="#898fc9" fill-opacity="1"></use></g><g><use xlink:href="#b3HXLGyUa8" opacity="1" fill="#285680" fill-opacity="1"></use></g><g><use xlink:href="#b7klP9n5Ug" opacity="1" fill="#183148" fill-opacity="1"></use><g><use xlink:href="#b7klP9n5Ug" opacity="1" fill-opacity="0" stroke="#183148" stroke-width="1" stroke-opacity="1"></use></g></g><g><use xlink:href="#aDchAgkka" opacity="1" fill="#ffffff" fill-opacity="1"></use><g><use xlink:href="#aDchAgkka" opacity="1" fill-opacity="0" stroke="#000000" stroke-width="1" stroke-opacity="0"></use></g></g><g><use xlink:href="#e5ALrtdwNb" opacity="1" fill="#ffffff" fill-opacity="1"></use></g><g><use xlink:href="#a61xMlNee" opacity="1" fill="#e47a7a" fill-opacity="1"></use></g><g><use xlink:href="#herRitmEu" opacity="1" fill="#ffffff" fill-opacity="1"></use></g><g><use xlink:href="#adLDTEmhM" opacity="1" fill="#9095e0" fill-opacity="1"></use><g><use xlink:href="#adLDTEmhM" opacity="1" fill-opacity="0" stroke="#000000" stroke-width="1" stroke-opacity="1"></use></g></g><g><use xlink:href="#g21YtyhN3" opacity="1" fill="#ffffff" fill-opacity="1"></use></g><g><use xlink:href="#c1Qt8EaVpo" opacity="1" fill="#3fb132" fill-opacity="1"></use><g><use xlink:href="#c1Qt8EaVpo" opacity="1" fill-opacity="0" stroke="#146217" stroke-width="1" stroke-opacity="1"></use></g></g><g><use xlink:href="#a5k9PjtIRU" opacity="1" fill="#81868a" fill-opacity="1"></use></g><g><use xlink:href="#b2WPyfVMVW" opacity="1" fill="#dd5353" fill-opacity="1"></use></g><g><use xlink:href="#g5i4E0xqO" opacity="1" fill="#ffffff" fill-opacity="1"></use></g><g><use xlink:href="#fN2oc8mcT" opacity="1" fill="#ffffff" fill-opacity="1"></use></g><g><g><use xlink:href="#j5VkzviNdG" opacity="1" fill-opacity="0" stroke="#146217" stroke-width="1" stroke-opacity="1"></use></g></g></g></g></svg>